REM MD5 fd519c75e24cd4a9b64c57c89ae6349e
FILE "Play Fun 11-99 (Germany).bin" BINARY
  TRACK 01 MODE2/2352
    INDEX 01 00:00:00
  TRACK 02 AUDIO
    INDEX 00 43:45:43
    INDEX 01 43:47:43
  TRACK 03 AUDIO
    INDEX 00 45:07:59
    INDEX 01 45:09:59
REM LEADOUT 48:10:59
